<svg version="1.1" xmlns="http://www.w3.org/2000/svg" xmlns:xlink="http://www.w3.org/1999/xlink" width="88.61503" height="89.82004" viewBox="0,0,88.61503,89.82004"><g transform="translate(-137.5,-277.5)"><g data-paper-data="{&quot;isPaintingLayer&quot;:true}" fill-rule="nonzero" stroke-width="5" stroke-linejoin="miter" stroke-miterlimit="10" stroke-dasharray="" stroke-dashoffset="0" style="mix-blend-mode: normal"><path d="M143.61503,324.82004c0,-22.09139 17.90861,-40 40,-40c22.09139,0 40,17.90861 40,40c0,22.09139 -17.90861,40 -40,40c-22.09139,0 -40,-17.90861 -40,-40z" fill="#21539b" stroke="#062120" stroke-linecap="butt"/><path d="M140,320c0,-22.09139 17.90861,-40 40,-40c22.09139,0 40,17.90861 40,40c0,22.09139 -17.90861,40 -40,40c-22.09139,0 -40,-17.90861 -40,-40z" fill="#21539b" stroke="#ffffff" stroke-linecap="butt"/><path d="M205,320h-50l20.09821,-13.00002" fill="none" stroke="#ffffff" stroke-linecap="round"/><path d="M152.93488,321.40399l24.30311,10.95291" fill="none" stroke="#ffffff" stroke-linecap="round"/></g></g></svg>